# AST/ASF file generated using VICON BodyLanguage
# -----------------------------------------------
:version 1.10
:name VICON
:units
  mass 1.0
  length 0.45
  angle deg
:documentation
   .ast/.asf automatically generated from VICON data using
   VICON BodyBuilder and BodyLanguage model FoxedUp or BRILLIANT.MOD
:root
   order TX TY TZ RX RY RZ
   axis XYZ
   position 0 0 0  
   orientation 0 -0 0 
:bonedata
  begin
     id 1 
     name lhipjoint
     direction 0.515797 -0.759363 0.396637 
     length 2.47888 
     axis 0 -0 0  XYZ
  end
  begin
     id 2 
     name lfemur
     direction 0.34202 -0.939693 0  
     length 6.81885  
     axis 0 -0 20  XYZ
    dof rx ry rz
    limits (-160.0 20.0)
           (-70.0 70.0)
           (-60.0 70.0)
  end
  begin
     id 3 
     name ltibia
     direction 0.342037 -0.939687 0   
     length 7.89258   
     axis 0 -0 20   XYZ
    dof rx
    limits (-10.0 170.0)
  end
  begin
     id 4 
     name lfoot
     direction 0.173497 -0.476678 0.861787   
     length 2.51543   
     axis -90 -1.13533e-015 20   XYZ
    dof rx rz
    limits (-45.0 90.0)
           (-70.0 20.0)
  end
  begin
     id 5 
     name ltoes
     direction 1.53564e-011 -4.21897e-011 1   
     length 1.21388   
     axis -90 -1.13533e-015 20   XYZ
    dof rx
    limits (-90.0 20.0)
  end
  begin
     id 6 
     name rhipjoint
     direction -0.489454 -0.772941 0.403729   
     length 2.43534  
     axis 0 -0 0  XYZ 
  end
  begin
     id 7 
     name rfemur
     direction -0.34202 -0.939693 0   
     length 7.10357   
     axis 0 -0 -20   XYZ
    dof rx ry rz
    limits (-160.0 20.0)
           (-70.0 70.0)
           (-70.0 60.0)
  end
  begin
     id 8 
     name rtibia
     direction -0.34202 -0.939693 0   
     length 9.16127   
     axis 0 -0 -20   XYZ
    dof rx
    limits (-10.0 170.0)
 end
 begin
     id 9 
     name rfoot
     direction -0.270974 -0.748671 0.605033   
     length 1.74894  
     axis -90 1.13533e-015 -20   XYZ
    dof rx rz
    limits (-45.0 90.0)
           (-20.0 70.0)
  end
  begin
     id 10 
     name rtoes
     direction -1.53557e-011 -4.21759e-011 1   
     length 0.787585   
     axis -90 1.13533e-015 -20   XYZ
    dof rx
    limits (-90.0 20.0)
  end
  begin
     id 11 
     name lowerback
     direction -0.0140249 0.999561 0.0260968   
     length 2.16963   
     axis 0 -0 0   XYZ
    dof rx ry rz
    limits (-20.0 45.0)
           (-30.0 30.0)
           (-30.0 30.0)
  end
  begin
     id 12 
     name upperback
     direction 0.00860018 0.999959 -0.002711   
     length 2.1726   
     axis 0 -0 0   XYZ
    dof rx ry rz
    limits (-20.0 45.0)
           (-30.0 30.0)
           (-30.0 30.0)
  end
  begin
     id 13 
     name thorax
     direction 0.015211 0.999782 -0.0143191   
     length 2.17061   
     axis 0 -0 0   XYZ
    dof rx ry rz
    limits (-20.0 45.0)
           (-30.0 30.0)
           (-30.0 30.0)
  end
  begin
     id 14 
     name lowerneck
     direction -0.0140143 0.999447 0.030145   
     length 2.26749   
     axis 0 -0 0   XYZ
    dof rx ry rz
    limits (-20.0 45.0)
           (-30.0 30.0)
           (-30.0 30.0)
  end
  begin
     id 15 
     name upperneck
     direction 0.118062 0.961438 -0.248392   
     length 2.22728   
     axis 0 -0 0   XYZ
    dof rx ry rz
    limits (-20.0 45.0)
           (-30.0 30.0)
           (-30.0 30.0)
  end
  begin
     id 16
     name head
     direction 0.0431885 0.9954 -0.085514  
     length 2.28786  
     axis 0 -0 0   XYZ
    dof rx ry rz
    limits (-20.0 45.0)
           (-30.0 30.0)
           (-30.0 30.0)
  end
  begin
     id 17 
     name lclavicle
     direction 0.912126 0.409548 0.0172323  
     length 4.31571  
     axis 0 -0 0   XYZ
    dof ry rz
    limits (-20.0 10.0)
           (0.0 20.0)
  end
  begin
     id 18 
     name lhumerus
     direction 1 -4.48977e-011 1.93091e-027   
     length 5.13658   
     axis 180 -30 -90   XYZ
    dof rx ry rz
    limits (-60.0 90.0)
           (-90.0 90.0)
           (-90.0 90.0)
  end
  begin
     id 19
     name lradius
     direction 1 -4.48916e-011 6.84018e-027   
     length 3.22473   
     axis 180 -30 -90   XYZ
    dof rx
    limits (-10.0 170.0)
  end
  begin
     id 20
     name lwrist
     direction 1 -4.48987e-011 7.01981e-027   
     length 1.61236   
     axis -4.37994e-015 90 90   XYZ
    dof ry
    limits (-180.0 0.0)
 end
  begin
     id 21 
     name lhand
     direction 1 -4.49037e-011 1.40335e-026   
     length 0.936406   
     axis -8.96029e-015 90 90   XYZ
    dof rx rz
    limits (-90.0 90.0)
           (-45.0 45.0)
  end
  begin
     id 22 
     name lfingers
     direction 1 -4.48886e-011 2.8104e-026   
     length 0.754955   
     axis -1.79203e-014 90 90   XYZ
    dof rx
    limits (0.0 90.0)
  end
  begin
     id 23
     name lthumb
     direction 0.707107 -6.34937e-011 0.707107   
     length 1.08397   
     axis -90 45 -4.48555e-014   XYZ
    dof rx rz
    limits (-45.0 45.0)
           (-45.0 45.0)
  end
  begin
     id 24 
     name rclavicle
     direction -0.947962 0.317997 0.0156638   
     length 4.86918  
     axis 0 -0 0   XYZ 
    dof ry rz
    limits (-10.0 20.0)
           (-20.0 0.0)
  end
  begin
     id 25 
     name rhumerus
     direction -1 -4.48951e-011 2.80534e-018  
     length 5.60911   
     axis 180 30 90   XYZ
    dof rx ry rz
    limits (-90.0 60.0)
           (-90.0 90.0)
           (-90.0 90.0)
  end
  begin
     id 26 
     name rradius
     direction -1 -4.4898e-011 2.11315e-027   
     length 3.38704   
     axis 180 30 90   XYZ
    dof rx
    limits (-10.0 170.0)
  end
  begin
     id 27 
     name rwrist
     direction -1 -4.48933e-011 7.02314e-027   
     length 1.69352   
     axis -4.37994e-015 -90 -90   XYZ
    dof ry
    limits (-180.0 0.0)
  end
  begin
     id 28
     name rhand
     direction -1 -4.48937e-011 1.40458e-026   
     length 0.755878   
     axis -8.96029e-015 -90 -90   XYZ
    dof rx rz
    limits (-90.0 90.0)
           (-45.0 45.0)
  end
  begin
     id 29
     name rfingers
     direction -1 -4.4901e-011 2.80737e-026   
     length 0.609409   
     axis -1.79203e-014 -90 -90   XYZ
    dof rx
    limits (0.0 90.0)
  end
  begin
     id 30
     name rthumb
     direction -0.707107 -6.34968e-011 0.707107   
     length 0.874992   
     axis -90 -45 4.48555e-014   XYZ
    dof rx rz
    limits (-45.0 45.0)
           (-45.0 45.0)
  end
:hierarchy
  begin
    root lhipjoint rhipjoint lowerback
    lhipjoint lfemur
    lfemur ltibia
    ltibia lfoot
    lfoot ltoes
    rhipjoint rfemur
    rfemur rtibia
    rtibia rfoot
    rfoot rtoes
    lowerback upperback
    upperback thorax
    thorax lowerneck lclavicle rclavicle
    lowerneck upperneck
    upperneck head
    lclavicle lhumerus
    lhumerus lradius
    lradius lwrist
    lwrist lhand lthumb
    lhand lfingers
    rclavicle rhumerus
    rhumerus rradius
    rradius rwrist
    rwrist rhand rthumb
    rhand rfingers
  end

#!OML:ASF C:\ViconDB\ViconDB\414\Spring2016\041811\Spring2016.ASF
:FULLY-SPECIFIED
:DEGREES
136
root 11.0609 18.0514 5.37578 -177.974 -5.87321 -180.947
lowerback 0.0651686 0.894465 -2.95281
upperback 2.25394 1.18052 -0.209086
thorax 2.22067 0.512158 1.46001
lowerneck -13.3876 2.10295 -5.4232
upperneck 23.0516 0.923828 9.61215
head 9.34531 0.646121 4.31097
rclavicle -1.62755e-015 6.95746e-016
rhumerus -62.5334 20.9074 -95.7465
rradius 72.3134
rwrist 35.616
rhand -40.2962 -7.24849
rfingers 7.12502
rthumb -13.2533 -36.8071
lclavicle -1.62755e-015 6.95746e-016
lhumerus -65.4406 -32.5787 98.304
lradius 68.3024
lwrist -33.6209
lhand -28.9991 3.70183
lfingers 7.12502
lthumb -2.35079 33.6686
rfemur 158.418 16.922 -175.942
rtibia 38.3907
rfoot 4.6989 -56.5389
rtoes -19.9493
lfemur -5.51911 -2.84068 -24.3333
ltibia 24.4804
lfoot -22.8763 2.91716
ltoes -10.5623
137
root 11.0442 18.0472 5.36413 -178.033 -5.91424 -181.084
lowerback 0.260096 0.890922 -3.06386
upperback 2.30713 1.16666 -0.247587
thorax 2.16522 0.50165 1.47954
lowerneck -13.2902 2.15996 -5.28298
upperneck 23.0287 0.978231 9.55409
head 9.31619 0.674161 4.26903
rclavicle 2.5196e-014 -4.77083e-015
rhumerus -63.9643 21.807 -95.9613
rradius 73.9707
rwrist 36.2688
rhand -41.0981 -6.58856
rfingers 7.12502
rthumb -14.0262 -36.0953
lclavicle 2.5196e-014 -4.77083e-015
lhumerus -67.045 -33.5327 98.4886
lradius 69.9128
lwrist -34.1627
lhand -29.4706 2.84312
lfingers 7.12502
lthumb -2.80616 32.8044
rfemur 157.445 16.2956 -175.96
rtibia 40.2343
rfoot 7.74634 -58.5368
rtoes -21.2549
lfemur -5.26017 -2.85352 -24.5514
ltibia 24.2328
lfoot -22.8406 2.90974
ltoes -10.6558
138
root 11.0237 18.0447 5.34901 -178.13 -6.02493 -181.181
lowerback 0.504268 0.839948 -3.07231
upperback 2.38217 1.08551 -0.247861
thorax 2.10885 0.458638 1.4796
lowerneck -13.3414 2.18241 -5.15209
upperneck 23.1129 1.04236 9.29082
head 9.35421 0.689355 4.16514
rclavicle 1.43001e-014 -1.66979e-014
rhumerus -65.3886 22.6723 -96.2048
rradius 75.5758
rwrist 37.1047
rhand -41.785 -5.87993
rfingers 7.12502
rthumb -14.688 -35.3397
lclavicle 1.43001e-014 -1.66979e-014
lhumerus -68.5456 -34.4123 98.7338
lradius 71.4676
lwrist -34.6097
lhand -29.8753 2.32761
lfingers 7.12502
lthumb -3.197 32.2834
rfemur 156.494 16.0656 -175.905
rtibia 42.0003
rfoot 10.6802 -60.0154
rtoes -21.5608
lfemur -4.89595 -2.9964 -24.749
ltibia 23.8939
lfoot -22.7868 2.97443
ltoes -10.7183
139
root 11.0034 18.0531 5.32369 -178.171 -6.16043 -181.2
lowerback 0.514784 0.70721 -3.14758
upperback 2.49751 0.904849 -0.0819774
thorax 2.22689 0.36074 1.69063
lowerneck -13.3538 2.29911 -5.3747
upperneck 23.0571 1.30287 9.21636
head 9.31234 0.790991 4.20496
rclavicle -1.69588e-015 5.06901e-015
rhumerus -66.883 23.961 -96.3771
rradius 77.1904
rwrist 37.7635
rhand -42.6531 -5.6024
rfingers 7.12502
rthumb -15.5242 -34.9992
lclavicle -1.69588e-015 5.06901e-015
lhumerus -70.0644 -35.0627 99.1872
lradius 73.1071
lwrist -35.069
lhand -30.1723 1.78714
lfingers 7.12502
lthumb -3.48382 31.7384
rfemur 155.773 16.15 -175.644
rtibia 43.6411
rfoot 12.447 -61.0858
rtoes -22.2117
lfemur -4.49585 -3.11745 -24.8565
ltibia 23.4395
lfoot -22.7167 3.03698
ltoes -10.7763
140
root 10.982 18.0666 5.29539 -178.168 -6.42046 -181.188
lowerback 0.595958 0.612942 -2.99841
upperback 2.50502 0.774503 -0.0960495
thorax 2.19753 0.298835 1.59009
lowerneck -13.333 2.36651 -5.20064
upperneck 23.1706 1.38165 9.04178
head 9.3457 0.819994 4.12538
rclavicle -1.6847e-014 1.45113e-014
rhumerus -68.4714 24.6678 -96.815
rradius 78.7296
rwrist 38.2926
rhand -43.3183 -4.7529
rfingers 7.12502
rthumb -16.1649 -34.0988
lclavicle -1.6847e-014 1.45113e-014
lhumerus -71.7974 -35.9849 99.6284
lradius 74.6027
lwrist -35.6595
lhand -30.5995 1.10668
lfingers 7.12502
lthumb -3.89641 31.0508
rfemur 155.303 16.5899 -175.216
rtibia 45.0884
rfoot 13.0455 -61.8979
rtoes -21.8849
lfemur -4.11328 -3.37636 -24.9335
ltibia 22.9181
lfoot -22.6237 3.12204
ltoes -10.9254
141
root 10.9596 18.0804 5.26422 -178.075 -6.66608 -181.187
lowerback 0.667498 0.524579 -2.7714
upperback 2.38266 0.65644 -0.17776
thorax 2.04009 0.250651 1.37646
lowerneck -13.0963 2.45614 -4.95392
upperneck 23.2359 1.43763 8.93852
head 9.32334 0.842989 4.04836
rclavicle 2.42269e-015 1.32192e-014
rhumerus -70.2845 25.2327 -97.5616
rradius 80.2463
rwrist 38.6459
rhand -43.8036 -4.88647
rfingers 7.12502
rthumb -16.6321 -34.1938
lclavicle 2.42269e-015 1.32192e-014
lhumerus -73.7819 -37.0277 100.295
lradius 75.9877
lwrist -35.9485
lhand -31.1007 0.49503
lfingers 7.12502
lthumb -4.38037 30.4297
rfemur 155.237 17.2994 -174.642
rtibia 46.2703
rfoot 12.8714 -62.7619
rtoes -21.5609
lfemur -3.82319 -3.60836 -25.0095
ltibia 22.4238
lfoot -22.6984 3.10813
ltoes -10.244
142
root 10.9363 18.0895 5.23367 -178.046 -7.00859 -181.163
lowerback 0.737526 0.369759 -2.60307
upperback 2.3759 0.446646 -0.125914
thorax 2.00361 0.149419 1.33278
lowerneck -13.1385 2.52151 -4.89644
upperneck 23.3965 1.55007 8.74166
head 9.38151 0.877052 3.98793
rclavicle -2.86312e-014 1.963e-015
rhumerus -71.8946 25.9347 -98.1001
rradius 81.6589
rwrist 38.6998
rhand -44.5207 -4.61593
rfingers 7.12502
rthumb -17.3224 -33.864
lclavicle -2.86312e-014 1.963e-015
lhumerus -75.3584 -37.7415 100.923
lradius 77.1791
lwrist -36.6125
lhand -31.6577 -0.0236237
lfingers 7.12502
lthumb -4.91821 29.8993
rfemur 155.371 18.1352 -174.018
rtibia 47.1558
rfoot 12.1718 -63.4659
rtoes -21.3281
lfemur -3.51149 -3.93234 -25.0637
ltibia 22.0013
lfoot -22.4624 3.15514
ltoes -10.8557
143
root 10.9151 18.0943 5.19866 -177.955 -7.33874 -180.954
lowerback 0.742238 0.212157 -2.32404
upperback 2.31428 0.236136 0.0848661
thorax 1.94638 0.0508596 1.39065
lowerneck -13.1793 2.61632 -5.03263
upperneck 23.58 1.7519 8.55272
head 9.4373 0.937113 3.97418
rclavicle 4.03626e-014 3.55328e-015
rhumerus -73.6688 26.736 -98.6073
rradius 83.2444
rwrist 38.1704
rhand -44.7854 -4.11722
rfingers 7.12502
rthumb -17.5771 -33.3427
lclavicle 4.03626e-014 3.55328e-015
lhumerus -76.971 -38.4058 101.869
lradius 78.2679
lwrist -37.0359
lhand -32.3883 -0.378588
lfingers 7.12502
lthumb -5.62365 29.5268
rfemur 155.909 19.1502 -173.012
rtibia 47.6783
rfoot 11.7544 -64.0177
rtoes -20.9319
lfemur -3.37382 -4.10983 -24.8841
ltibia 21.736
lfoot -22.4998 3.04154
ltoes -10.6228
